<svg width="321" height="96" viewBox="0 0 321 96" fill="none" xmlns="http://www.w3.org/2000/svg">
    <rect x="0.628723" width="320.296" height="96" rx="10" fill="black"/>
    <path d="M68.1183 50.0351C68.1499 47.582 68.8015 45.1767 70.0125 43.0431C71.2234 40.9096 72.9544 39.1169 75.0443 37.8321C73.7166 35.9359 71.9651 34.3755 69.9289 33.2747C67.8927 32.1739 65.6278 31.563 63.3142 31.4906C58.3789 30.9726 53.5943 34.4438 51.0794 34.4438C48.5157 34.4438 44.6436 31.542 40.4739 31.6278C37.7768 31.715 35.1483 32.4993 32.8445 33.9043C30.5407 35.3093 28.6401 37.2871 27.3279 39.6451C21.6438 49.4862 25.8836 63.9492 31.3285 71.904C34.0527 75.7992 37.2365 80.1503 41.4024 79.996C45.479 79.8269 47.0015 77.3965 51.9223 77.3965C56.7974 77.3965 58.2259 79.996 62.4763 79.8979C66.8507 79.8269 69.6068 75.9854 72.2354 72.0533C74.1927 69.2778 75.6988 66.2102 76.698 62.9643C74.1566 61.8894 71.9879 60.0902 70.4622 57.791C68.9364 55.4919 68.1213 52.7944 68.1183 50.0351Z" fill="white"/>
    <path d="M60.09 26.259C62.4751 23.3958 63.6502 19.7156 63.3656 16C59.7217 16.3827 56.3558 18.1243 53.9385 20.8776C52.7566 22.2227 51.8514 23.7875 51.2746 25.4827C50.6978 27.1778 50.4608 28.97 50.5771 30.7568C52.3997 30.7756 54.2028 30.3805 55.8506 29.6014C57.4984 28.8223 58.9479 27.6795 60.09 26.259Z" fill="white"/>
    <path d="M121.285 63.7751H108.911L105.939 72.3491H100.698L112.419 40.6278H117.864L129.585 72.3491H124.254L121.285 63.7751ZM110.192 59.8187H120.001L115.166 45.9039H115.03L110.192 59.8187Z" fill="white"/>
    <path d="M154.898 60.7866C154.898 67.9735 150.961 72.591 145.02 72.591C143.515 72.6679 142.019 72.3291 140.701 71.6135C139.384 70.8979 138.3 69.8344 137.573 68.5447H137.461V79.9999H132.602V49.2216H137.305V53.0683H137.394C138.155 51.7848 139.257 50.7267 140.585 50.0068C141.912 49.2868 143.414 48.9318 144.931 48.9796C150.938 48.9797 154.898 53.6196 154.898 60.7866ZM149.904 60.7866C149.904 56.1042 147.428 53.0259 143.649 53.0259C139.937 53.0259 137.44 56.1691 137.44 60.7866C137.44 65.4465 139.937 68.5672 143.649 68.5672C147.428 68.5672 149.904 65.5113 149.904 60.7866Z" fill="white"/>
    <path d="M180.948 60.7867C180.948 67.9736 177.011 72.5911 171.071 72.5911C169.566 72.668 168.069 72.3293 166.752 71.6137C165.435 70.8981 164.351 69.8345 163.624 68.5448H163.511V80H158.653V49.2218H163.355V53.0684H163.445C164.205 51.7849 165.308 50.7269 166.635 50.0069C167.962 49.2869 169.464 48.932 170.981 48.9798C176.988 48.9798 180.948 53.6197 180.948 60.7867ZM175.954 60.7867C175.954 56.1044 173.478 53.026 169.7 53.026C165.988 53.026 163.491 56.1692 163.491 60.7867C163.491 65.4466 165.988 68.5673 169.7 68.5673C173.478 68.5673 175.954 65.5115 175.954 60.7867H175.954Z" fill="white"/>
    <path d="M198.165 63.5108C198.525 66.6565 201.653 68.7219 205.926 68.7219C210.021 68.7219 212.967 66.6564 212.967 63.82C212.967 61.3578 211.191 59.8836 206.983 58.8732L202.776 57.8829C196.815 56.4759 194.047 53.7518 194.047 49.3314C194.047 43.8583 198.929 40.0989 205.86 40.0989C212.72 40.0989 217.422 43.8583 217.581 49.3314H212.676C212.383 46.1658 209.705 44.2549 205.791 44.2549C201.877 44.2549 199.199 46.1882 199.199 49.0021C199.199 51.2448 200.91 52.5644 205.094 53.5746L208.671 54.4328C215.331 55.9719 218.099 58.5863 218.099 63.2262C218.099 69.1608 213.261 72.8778 205.566 72.8778C198.367 72.8778 193.506 69.2481 193.192 63.5106L198.165 63.5108Z" fill="white"/>
    <path d="M228.584 43.7486V49.2217H233.085V52.9811H228.584V65.7309C228.584 67.7116 229.485 68.6347 231.464 68.6347C231.998 68.6255 232.531 68.5889 233.062 68.5248V72.2617C232.172 72.4241 231.268 72.4977 230.363 72.4812C225.571 72.4812 223.703 70.7225 223.703 66.2373V52.9811H220.261V49.2217H223.703V43.7486H228.584Z" fill="white"/>
    <path d="M235.692 60.7866C235.692 53.5099 240.078 48.9373 246.917 48.9373C253.779 48.9373 258.145 53.5098 258.145 60.7866C258.145 68.0833 253.802 72.636 246.917 72.636C240.034 72.636 235.692 68.0833 235.692 60.7866ZM253.195 60.7866C253.195 55.795 250.854 52.8489 246.917 52.8489C242.98 52.8489 240.642 55.8174 240.642 60.7866C240.642 65.7983 242.98 68.722 246.917 68.722C250.854 68.722 253.195 65.7983 253.195 60.7866H253.195Z" fill="white"/>
    <path d="M262.15 49.2217H266.784V53.1582H266.896C267.21 51.9287 267.947 50.8423 268.984 50.0813C270.021 49.3204 271.294 48.9314 272.59 48.9797C273.149 48.9778 273.708 49.0372 274.254 49.1569V53.5972C273.547 53.3862 272.81 53.2893 272.071 53.3104C271.365 53.2824 270.662 53.404 270.009 53.6668C269.356 53.9296 268.768 54.3274 268.287 54.8329C267.806 55.3384 267.443 55.9397 267.222 56.5953C267.002 57.251 266.929 57.9455 267.009 58.6313V72.3491H262.15L262.15 49.2217Z" fill="white"/>
    <path d="M296.654 65.5563C296 69.7547 291.816 72.636 286.462 72.636C279.577 72.636 275.303 68.1282 275.303 60.8964C275.303 53.6421 279.6 48.9373 286.258 48.9373C292.807 48.9373 296.924 53.3328 296.924 60.3451V61.9716H280.208V62.2584C280.13 63.1096 280.24 63.967 280.528 64.7738C280.816 65.5806 281.276 66.3183 281.878 66.9379C282.48 67.5575 283.211 68.0448 284.02 68.3674C284.83 68.6901 285.701 68.8407 286.575 68.8092C287.723 68.9143 288.875 68.6545 289.86 68.0684C290.845 67.4823 291.609 66.6013 292.041 65.5563L296.654 65.5563ZM280.231 58.6538H292.064C292.107 57.8885 291.988 57.1226 291.715 56.4043C291.441 55.6859 291.019 55.0306 290.473 54.4795C289.928 53.9283 289.272 53.4932 288.547 53.2014C287.822 52.9096 287.042 52.7675 286.258 52.784C285.467 52.7794 284.683 52.9279 283.951 53.221C283.219 53.5141 282.553 53.946 281.993 54.4917C281.432 55.0374 280.988 55.6862 280.686 56.4006C280.383 57.1149 280.229 57.8807 280.231 58.6538V58.6538Z" fill="white"/>
    <path d="M109.584 16.7511C110.602 16.6796 111.624 16.83 112.576 17.1913C113.528 17.5526 114.386 18.1158 115.088 18.8403C115.79 19.5648 116.319 20.4325 116.636 21.3809C116.954 22.3293 117.052 23.3347 116.923 24.3246C116.923 29.1941 114.23 31.9931 109.584 31.9931H103.949V16.7511H109.584ZM106.372 29.8376H109.313C110.041 29.8801 110.769 29.7635 111.445 29.4962C112.121 29.229 112.727 28.8179 113.22 28.2928C113.713 27.7677 114.08 27.1418 114.294 26.4607C114.508 25.7797 114.563 25.0605 114.457 24.3557C114.556 23.6536 114.494 22.939 114.277 22.2629C114.06 21.5868 113.692 20.9661 113.2 20.4452C112.709 19.9242 112.105 19.516 111.433 19.2497C110.761 18.9835 110.037 18.8657 109.313 18.905H106.372V29.8376Z" fill="white"/>
    <path d="M119.66 26.2366C119.586 25.4807 119.675 24.7181 119.92 23.9975C120.165 23.277 120.562 22.6145 121.085 22.0526C121.607 21.4906 122.244 21.0416 122.955 20.7344C123.666 20.4272 124.434 20.2685 125.212 20.2685C125.989 20.2685 126.757 20.4272 127.468 20.7344C128.179 21.0416 128.816 21.4906 129.338 22.0526C129.861 22.6145 130.258 23.277 130.503 23.9975C130.748 24.7181 130.837 25.4807 130.763 26.2366C130.838 26.9933 130.751 27.7571 130.506 28.4788C130.262 29.2005 129.865 29.8642 129.342 30.4272C128.819 30.9902 128.182 31.4402 127.47 31.7481C126.759 32.056 125.99 32.215 125.212 32.215C124.433 32.215 123.664 32.056 122.953 31.7481C122.241 31.4402 121.604 30.9902 121.081 30.4272C120.558 29.8642 120.161 29.2005 119.917 28.4788C119.672 27.7571 119.585 26.9933 119.66 26.2366ZM128.373 26.2366C128.373 23.7433 127.227 22.2852 125.215 22.2852C123.196 22.2852 122.06 23.7433 122.06 26.2367C122.06 28.75 123.196 30.1968 125.215 30.1968C127.227 30.1968 128.373 28.74 128.373 26.2366H128.373Z" fill="white"/>
    <path d="M145.522 31.9929H143.112L140.679 23.5212H140.495L138.072 31.9929H135.685L132.44 20.4903H134.797L136.906 29.2674H137.079L139.499 20.4903H141.728L144.148 29.2674H144.332L146.431 20.4903H148.754L145.522 31.9929Z" fill="white"/>
    <path d="M151.483 20.4902H153.719V22.3175H153.893C154.187 21.6612 154.684 21.1111 155.314 20.7437C155.944 20.3764 156.675 20.2101 157.406 20.2682C157.979 20.2261 158.554 20.3105 159.089 20.5151C159.624 20.7197 160.104 21.0393 160.496 21.4502C160.887 21.861 161.179 22.3527 161.349 22.8886C161.52 23.4246 161.564 23.9912 161.48 24.5464V31.9927H159.157V25.1165C159.157 23.268 158.335 22.3487 156.617 22.3487C156.228 22.331 155.84 22.3957 155.479 22.5383C155.118 22.6809 154.793 22.8981 154.526 23.175C154.259 23.4518 154.056 23.7818 153.932 24.1423C153.808 24.5029 153.765 24.8854 153.806 25.2636V31.9928H151.483L151.483 20.4902Z" fill="white"/>
    <path d="M165.182 16H167.505V31.9928H165.182V16Z" fill="white"/>
    <path d="M170.735 26.2367C170.661 25.4807 170.749 24.718 170.995 23.9974C171.24 23.2769 171.637 22.6144 172.16 22.0524C172.683 21.4905 173.32 21.0415 174.03 20.7342C174.741 20.427 175.51 20.2683 176.287 20.2683C177.064 20.2683 177.833 20.427 178.543 20.7342C179.254 21.0415 179.891 21.4905 180.414 22.0524C180.937 22.6144 181.334 23.2769 181.579 23.9974C181.824 24.718 181.913 25.4807 181.839 26.2367C181.914 26.9934 181.827 27.7571 181.582 28.4788C181.337 29.2005 180.941 29.8642 180.418 30.4272C179.895 30.9903 179.257 31.4402 178.546 31.7481C177.835 32.0559 177.065 32.215 176.287 32.215C175.509 32.215 174.739 32.0559 174.028 31.7481C173.317 31.4402 172.679 30.9903 172.156 30.4272C171.633 29.8642 171.237 29.2005 170.992 28.4788C170.747 27.7571 170.66 26.9934 170.735 26.2367ZM179.448 26.2367C179.448 23.7433 178.302 22.2853 176.29 22.2853C174.271 22.2853 173.135 23.7433 173.135 26.2367C173.135 28.75 174.271 30.1969 176.29 30.1969C178.302 30.1968 179.448 28.74 179.448 26.2367H179.448Z" fill="white"/>
    <path d="M184.285 28.7399C184.285 26.6694 185.863 25.4757 188.663 25.3061L191.852 25.1265V24.1336C191.852 22.9188 191.03 22.2328 189.442 22.2328C188.145 22.2328 187.246 22.698 186.988 23.5112H184.739C184.977 21.5355 186.879 20.2683 189.549 20.2683C192.5 20.2683 194.165 21.7039 194.165 24.1336V31.9928H191.928V30.3764H191.745C191.371 30.9562 190.848 31.4289 190.226 31.7462C189.605 32.0635 188.909 32.214 188.209 32.1824C187.715 32.2326 187.215 32.1811 186.743 32.0311C186.27 31.8812 185.835 31.6361 185.465 31.3118C185.095 30.9875 184.799 30.591 184.596 30.148C184.393 29.7051 184.287 29.2254 184.285 28.7399ZM191.852 27.757V26.7954L188.977 26.975C187.356 27.081 186.621 27.6198 186.621 28.6339C186.621 29.6691 187.54 30.2715 188.804 30.2715C189.174 30.3082 189.548 30.2716 189.904 30.1641C190.259 30.0566 190.589 29.8803 190.873 29.6457C191.158 29.4111 191.391 29.123 191.559 28.7985C191.727 28.474 191.827 28.1199 191.852 27.757Z" fill="white"/>
    <path d="M197.218 26.2366C197.218 22.602 199.13 20.2995 202.105 20.2995C202.84 20.2664 203.57 20.4385 204.21 20.7959C204.849 21.1532 205.371 21.681 205.714 22.3175H205.888V16H208.211V31.9928H205.985V30.1755H205.801C205.431 30.8077 204.891 31.3289 204.239 31.6827C203.588 32.0364 202.849 32.2092 202.105 32.1824C199.11 32.1825 197.218 29.88 197.218 26.2366ZM199.618 26.2366C199.618 28.6763 200.795 30.1444 202.763 30.1444C204.721 30.1444 205.932 28.6551 205.932 26.2466C205.932 23.8493 204.709 22.3388 202.763 22.3388C200.808 22.3388 199.618 23.8168 199.618 26.2366H199.618Z" fill="white"/>
    <path d="M217.823 26.2366C217.749 25.4807 217.838 24.7181 218.083 23.9975C218.328 23.277 218.725 22.6145 219.248 22.0526C219.77 21.4906 220.408 21.0416 221.118 20.7344C221.829 20.4272 222.597 20.2685 223.375 20.2685C224.152 20.2685 224.92 20.4272 225.631 20.7344C226.342 21.0416 226.979 21.4906 227.501 22.0526C228.024 22.6145 228.421 23.277 228.666 23.9975C228.912 24.7181 229 25.4807 228.926 26.2366C229.001 26.9933 228.914 27.7571 228.669 28.4788C228.425 29.2005 228.028 29.8642 227.505 30.4272C226.983 30.9902 226.345 31.4402 225.634 31.7481C224.922 32.056 224.153 32.215 223.375 32.215C222.597 32.215 221.827 32.056 221.116 31.7481C220.404 31.4402 219.767 30.9902 219.244 30.4272C218.721 29.8642 218.325 29.2005 218.08 28.4788C217.835 27.7571 217.748 26.9933 217.823 26.2366ZM226.536 26.2366C226.536 23.7433 225.39 22.2852 223.378 22.2852C221.359 22.2852 220.223 23.7433 220.223 26.2367C220.223 28.75 221.359 30.1968 223.378 30.1968C225.39 30.1968 226.536 28.74 226.536 26.2366Z" fill="white"/>
    <path d="M232.043 20.4902H234.28V22.3175H234.453C234.748 21.6612 235.244 21.1111 235.874 20.7437C236.504 20.3764 237.235 20.2101 237.966 20.2682C238.539 20.2261 239.114 20.3105 239.649 20.5151C240.184 20.7197 240.665 21.0393 241.056 21.4502C241.447 21.861 241.739 22.3527 241.909 22.8886C242.08 23.4246 242.125 23.9912 242.041 24.5464V31.9927H239.717V25.1165C239.717 23.268 238.895 22.3487 237.177 22.3487C236.788 22.331 236.4 22.3957 236.039 22.5383C235.678 22.6809 235.353 22.8981 235.086 23.175C234.819 23.4518 234.617 23.7818 234.492 24.1423C234.368 24.5029 234.325 24.8854 234.366 25.2636V31.9928H232.043V20.4902Z" fill="white"/>
    <path d="M255.168 17.6265V20.5427H257.718V22.4548H255.168V28.3695C255.168 29.5744 255.676 30.102 256.833 30.102C257.129 30.101 257.424 30.0835 257.718 30.0496V31.9405C257.301 32.0134 256.879 32.0522 256.455 32.0565C253.871 32.0565 252.842 31.1684 252.842 28.9507V22.4547H250.974V20.5426H252.842V17.6265H255.168Z" fill="white"/>
    <path d="M260.892 16H263.195V22.3388H263.378C263.687 21.6764 264.198 21.1231 264.84 20.7544C265.482 20.3856 266.225 20.2194 266.968 20.2782C267.538 20.248 268.107 20.3409 268.636 20.5505C269.165 20.7601 269.64 21.0811 270.027 21.4907C270.414 21.9002 270.704 22.3883 270.876 22.9199C271.048 23.4516 271.098 24.0138 271.022 24.5664V31.9929H268.696V25.1265C268.696 23.2892 267.821 22.3587 266.179 22.3587C265.78 22.3267 265.378 22.3803 265.002 22.5159C264.626 22.6514 264.285 22.8655 264.003 23.1433C263.721 23.4211 263.504 23.7557 263.368 24.1239C263.232 24.4921 263.18 24.8849 263.215 25.2749V31.9928H260.892L260.892 16Z" fill="white"/>
    <path d="M284.568 28.8871C284.252 29.9384 283.569 30.8477 282.636 31.4561C281.704 32.0644 280.582 32.333 279.467 32.2149C278.692 32.2349 277.921 32.0897 277.209 31.7895C276.496 31.4893 275.859 31.0412 275.342 30.4763C274.824 29.9114 274.439 29.2433 274.212 28.5183C273.986 27.7933 273.923 27.0287 274.029 26.2778C273.926 25.5245 273.99 24.7583 274.216 24.0312C274.442 23.304 274.825 22.6327 275.34 22.0629C275.855 21.4931 276.488 21.0379 277.199 20.7283C277.909 20.4187 278.679 20.2618 279.457 20.2683C282.732 20.2683 284.708 22.4549 284.708 26.0669V26.859H276.396V26.9863C276.36 27.4084 276.414 27.8333 276.555 28.2337C276.697 28.6341 276.922 29.0012 277.218 29.3114C277.513 29.6217 277.871 29.8682 278.269 30.0353C278.668 30.2024 279.098 30.2862 279.531 30.2815C280.087 30.3467 280.65 30.2489 281.148 30.0006C281.647 29.7523 282.059 29.3647 282.332 28.887L284.568 28.8871ZM276.396 25.1802H282.342C282.371 24.7941 282.317 24.4063 282.184 24.0418C282.051 23.6772 281.841 23.3439 281.568 23.0633C281.295 22.7826 280.965 22.5609 280.6 22.4123C280.234 22.2637 279.84 22.1915 279.444 22.2004C279.042 22.1954 278.644 22.2692 278.271 22.4172C277.899 22.5652 277.561 22.7845 277.277 23.0622C276.993 23.3399 276.769 23.6704 276.617 24.0341C276.466 24.3979 276.391 24.7875 276.396 25.1802H276.396Z" fill="white"/>
</svg>
