<svg width="330" height="96" viewBox="0 0 330 96" fill="none" xmlns="http://www.w3.org/2000/svg">
    <rect x="0.9245" width="328.66" height="96" rx="10" fill="black"/>
    <path d="M51.662 46.5645L25.1688 74.6825C25.1713 74.6874 25.1713 74.6949 25.1738 74.6999C25.9875 77.753 28.7744 80 32.0839 80C33.4076 80 34.6493 79.6417 35.7143 79.0146L35.7989 78.9649L65.6189 61.7581L51.662 46.5645Z" fill="#EA4335"/>
    <path d="M78.4634 41.7765L78.4385 41.7591L65.564 34.2966L51.0596 47.2035L65.6162 61.7552L78.4211 54.3674C80.6656 53.1531 82.1909 50.7867 82.1909 48.0595C82.1909 45.3472 80.688 42.9933 78.4634 41.7765Z" fill="#FBBC04"/>
    <path d="M25.1684 21.3155C25.0091 21.9027 24.9245 22.5198 24.9245 23.1568V72.8436C24.9245 73.4806 25.0091 74.0977 25.1708 74.6825L52.5722 47.2836L25.1684 21.3155Z" fill="#4285F4"/>
    <path d="M51.8576 47.9998L65.5683 34.2916L35.7831 17.0227C34.7007 16.3733 33.4366 16 32.0855 16C28.776 16 25.9841 18.2519 25.1704 21.3076C25.1704 21.3101 25.1679 21.3126 25.1679 21.3151L51.8576 47.9998Z" fill="#34A853"/>
    <path d="M121.188 23.9451C121.188 25.9161 120.605 27.4848 119.436 28.6561C118.107 30.0485 116.379 30.7447 114.252 30.7447C112.213 30.7447 110.482 30.0391 109.059 28.6256C107.631 27.2144 106.921 25.4621 106.921 23.3735C106.921 21.2826 107.631 19.5327 109.059 18.1192C110.482 16.708 112.213 16 114.252 16C115.261 16 116.23 16.1976 117.148 16.5927C118.067 16.9878 118.803 17.5123 119.356 18.1685L118.114 19.4104C117.181 18.2956 115.894 17.7358 114.252 17.7358C112.766 17.7358 111.482 18.2579 110.397 19.3022C109.313 20.3489 108.772 21.7036 108.772 23.3735C108.772 25.0411 109.313 26.3982 110.397 27.4425C111.482 28.4891 112.766 29.0089 114.252 29.0089C115.828 29.0089 117.141 28.4844 118.194 27.4331C118.876 26.7487 119.269 25.7985 119.375 24.5754H114.252V22.8796H121.09C121.155 23.2489 121.188 23.604 121.188 23.9451Z" fill="white"/>
    <path d="M121.188 23.9451C121.188 25.9161 120.605 27.4848 119.436 28.6561C118.107 30.0485 116.379 30.7447 114.252 30.7447C112.213 30.7447 110.482 30.0391 109.059 28.6256C107.631 27.2144 106.921 25.4621 106.921 23.3735C106.921 21.2826 107.631 19.5327 109.059 18.1192C110.482 16.708 112.213 16 114.252 16C115.261 16 116.23 16.1976 117.148 16.5927C118.067 16.9878 118.803 17.5123 119.356 18.1685L118.114 19.4104C117.181 18.2956 115.894 17.7358 114.252 17.7358C112.766 17.7358 111.482 18.2579 110.397 19.3022C109.313 20.3489 108.772 21.7036 108.772 23.3735C108.772 25.0411 109.313 26.3982 110.397 27.4425C111.482 28.4891 112.766 29.0089 114.252 29.0089C115.828 29.0089 117.141 28.4844 118.194 27.4331C118.876 26.7487 119.269 25.7985 119.375 24.5754H114.252V22.8796H121.09C121.155 23.2489 121.188 23.604 121.188 23.9451Z" fill="white"/>
    <path d="M132.03 18.0512H125.604V22.5247H131.399V24.2205H125.604V28.694H132.03V30.4298H123.79V16.3178H132.03V18.0512Z" fill="white"/>
    <path d="M132.03 18.0512H125.604V22.5247H131.399V24.2205H125.604V28.694H132.03V30.4298H123.79V16.3178H132.03V18.0512Z" fill="white"/>
    <path d="M139.676 30.4291H137.863V18.0505H133.921V16.3171H143.618V18.0505H139.676V30.4291Z" fill="white"/>
    <path d="M139.676 30.4291H137.863V18.0505H133.921V16.3171H143.618V18.0505H139.676V30.4291Z" fill="white"/>
    <path d="M150.634 16.3171H152.448V30.4291H150.634V16.3171Z" fill="white"/>
    <path d="M160.49 30.4291H158.677V18.0505H154.735V16.3171H164.432V18.0505H160.49V30.4291Z" fill="white"/>
    <path d="M160.49 30.4291H158.677V18.0505H154.735V16.3171H164.432V18.0505H160.49V30.4291Z" fill="white"/>
    <path d="M173.781 27.4237C174.825 28.4821 176.103 29.0089 177.615 29.0089C179.127 29.0089 180.404 28.4821 181.449 27.4237C182.493 26.3653 183.018 25.0152 183.018 23.3735C183.018 21.7318 182.493 20.3794 181.449 19.3234C180.404 18.265 179.127 17.7358 177.615 17.7358C176.103 17.7358 174.825 18.265 173.781 19.3234C172.739 20.3794 172.215 21.7318 172.215 23.3735C172.215 25.0152 172.739 26.3653 173.781 27.4237ZM182.789 28.6044C181.402 30.0321 179.678 30.7447 177.615 30.7447C175.552 30.7447 173.828 30.0321 172.443 28.6044C171.055 27.1791 170.364 25.4362 170.364 23.3735C170.364 21.3108 171.055 19.5656 172.443 18.1403C173.828 16.715 175.552 16 177.615 16C179.666 16 181.385 16.7174 182.78 18.1497C184.172 19.5821 184.869 21.3226 184.869 23.3735C184.869 25.4362 184.175 27.1791 182.789 28.6044Z" fill="white"/>
    <path d="M173.781 27.4237C174.825 28.4821 176.103 29.0089 177.615 29.0089C179.127 29.0089 180.404 28.4821 181.449 27.4237C182.493 26.3653 183.018 25.0152 183.018 23.3735C183.018 21.7318 182.493 20.3794 181.449 19.3234C180.404 18.265 179.127 17.7358 177.615 17.7358C176.103 17.7358 174.825 18.265 173.781 19.3234C172.739 20.3794 172.215 21.7318 172.215 23.3735C172.215 25.0152 172.739 26.3653 173.781 27.4237ZM182.789 28.6044C181.402 30.0321 179.678 30.7447 177.615 30.7447C175.552 30.7447 173.828 30.0321 172.443 28.6044C171.055 27.1791 170.364 25.4362 170.364 23.3735C170.364 21.3108 171.055 19.5656 172.443 18.1403C173.828 16.715 175.552 16 177.615 16C179.666 16 181.385 16.7174 182.78 18.1497C184.172 19.5821 184.869 21.3226 184.869 23.3735C184.869 25.4362 184.175 27.1791 182.789 28.6044Z" fill="white"/>
    <path d="M187.413 30.4291V16.3171H189.619L196.478 27.2939H196.558L196.478 24.575V16.3171H198.294V30.4291H196.4L189.224 18.9184H189.147L189.224 21.6397V30.4291H187.413Z" fill="white"/>
    <path d="M187.413 30.4291V16.3171H189.619L196.478 27.2939H196.558L196.478 24.575V16.3171H198.294V30.4291H196.4L189.224 18.9184H189.147L189.224 21.6397V30.4291H187.413Z" fill="white"/>
    <path d="M261.174 70.4132H265.563V41.0108H261.174V70.4132ZM300.704 51.6019L295.673 64.3498H295.523L290.301 51.6019H285.574L293.404 69.4183L288.942 79.3297H293.516L305.585 51.6019H300.704ZM275.815 67.0734C274.376 67.0734 272.372 66.356 272.372 64.5755C272.372 62.3082 274.867 61.438 277.024 61.438C278.953 61.438 279.863 61.8543 281.034 62.4211C280.693 65.1447 278.348 67.0734 275.815 67.0734ZM276.344 50.9598C273.167 50.9598 269.874 52.3592 268.515 55.4615L272.41 57.0868C273.242 55.4615 274.792 54.93 276.42 54.93C278.689 54.93 280.997 56.2918 281.034 58.7143V59.0154C280.239 58.5615 278.539 57.8817 276.457 57.8817C272.259 57.8817 267.983 60.1891 267.983 64.5003C267.983 68.4352 271.426 70.9706 275.284 70.9706C278.235 70.9706 279.863 69.6465 280.884 68.0941H281.034V70.3638H285.27V59.0907C285.27 53.8716 281.375 50.9598 276.344 50.9598ZM249.221 55.1816H242.979V45.1033H249.221C252.502 45.1033 254.365 47.8199 254.365 50.1413C254.365 52.4204 252.502 55.1816 249.221 55.1816ZM249.108 41.0108H238.592V70.4132H242.979V59.2741H249.108C253.972 59.2741 258.754 55.7508 258.754 50.1413C258.754 44.5317 253.972 41.0108 249.108 41.0108ZM191.764 67.0781C188.732 67.0781 186.194 64.5403 186.194 61.0546C186.194 57.5313 188.732 54.9535 191.764 54.9535C194.758 54.9535 197.105 57.5313 197.105 61.0546C197.105 64.5403 194.758 67.0781 191.764 67.0781ZM196.804 53.2483H196.651C195.666 52.0746 193.773 51.0139 191.385 51.0139C186.383 51.0139 181.799 55.4074 181.799 61.0546C181.799 66.6618 186.383 71.02 191.385 71.02C193.773 71.02 195.666 69.9593 196.651 68.7457H196.804V70.1874C196.804 74.0141 194.758 76.0604 191.461 76.0604C188.77 76.0604 187.102 74.127 186.42 72.4971L182.593 74.0894C183.692 76.7425 186.611 80 191.461 80C196.614 80 200.972 76.9683 200.972 69.5806V51.6183H196.804V53.2483ZM204.004 70.4132H208.4V41.0084H204.004V70.4132ZM214.877 60.7135C214.764 56.8492 217.871 54.8782 220.106 54.8782C221.851 54.8782 223.328 55.7485 223.819 56.9997L214.877 60.7135ZM228.519 57.3784C227.686 55.144 225.146 51.0139 219.955 51.0139C214.802 51.0139 210.521 55.0664 210.521 61.017C210.521 66.6241 214.764 71.02 220.447 71.02C225.033 71.02 227.686 68.2164 228.785 66.5865L225.374 64.3121C224.238 65.9797 222.683 67.0781 220.447 67.0781C218.212 67.0781 216.62 66.055 215.597 64.0487L228.973 58.5144L228.519 57.3784ZM121.954 54.0832V58.3263H132.108C131.804 60.7136 131.009 62.4564 129.798 63.6677C128.319 65.1471 126.007 66.777 121.954 66.777C115.7 66.777 110.813 61.7367 110.813 55.485C110.813 49.2311 115.7 44.1931 121.954 44.1931C125.327 44.1931 127.789 45.5196 129.607 47.2248L132.602 44.2307C130.061 41.8058 126.691 39.9477 121.954 39.9477C113.39 39.9477 106.191 46.9214 106.191 55.485C106.191 64.0487 113.39 71.02 121.954 71.02C126.576 71.02 130.061 69.503 132.79 66.6618C135.596 63.8582 136.466 59.9186 136.466 56.734C136.466 55.7485 136.391 54.8406 136.238 54.0832H121.954ZM148.012 67.0781C144.98 67.0781 142.365 64.5779 142.365 61.017C142.365 57.416 144.98 54.9535 148.012 54.9535C151.041 54.9535 153.657 57.416 153.657 61.017C153.657 64.5779 151.041 67.0781 148.012 67.0781ZM148.012 51.0139C142.478 51.0139 137.969 55.2193 137.969 61.017C137.969 66.777 142.478 71.02 148.012 71.02C153.544 71.02 158.053 66.777 158.053 61.017C158.053 55.2193 153.544 51.0139 148.012 51.0139ZM169.916 67.0781C166.884 67.0781 164.269 64.5779 164.269 61.017C164.269 57.416 166.884 54.9535 169.916 54.9535C172.948 54.9535 175.561 57.416 175.561 61.017C175.561 64.5779 172.948 67.0781 169.916 67.0781ZM169.916 51.0139C164.384 51.0139 159.875 55.2193 159.875 61.017C159.875 66.777 164.384 71.02 169.916 71.02C175.448 71.02 179.957 66.777 179.957 61.017C179.957 55.2193 175.448 51.0139 169.916 51.0139Z" fill="white"/>
</svg>
